# xmcd
#
# Track frame offsets:
#        150
#        13157
#        24902
#        36482
#        47630
#        61175
#        73542
#        84465
#        96807
#        107604
#        118620
#        129367
#        139955
#        149177
#        160280
#        171620
#        182092
#        190845
#        202427
#        213067
#        223650
#        232287
#        243025
#        252634
#        265507
#        277580
#        291302
#        304227
#
# Disc length: 4255 seconds
#
# Revision: 7
# Processed by: cddbd v1.5.1PL2 Copyright (c) Steve Scherf et al.
# Submitted via: ExactAudioCopy v0.95a5
#
DISCID=af109d1c
DTITLE=Various Artist - Crescent City Soul: Sound of New Orleans Disk 1
DYEAR=1996
DGENRE=Soul
TTITLE0=Professor Longhair - Mardi Gras in New Orleans
TTITLE1=Fats Domino - The Fat Man
TTITLE2=Roy Brown - Mighty Mighty Man
TTITLE3=Lloyd Price - Lawdy Miss Clawdy
TTITLE4=Guitar Slim - The Things That I Used to Do
TTITLE5=Spiders - I Don't Want to Do It
TTITLE6=Sugar Boy Crawford - Jock-A-Mo
TTITLE7=Smiley Lewis - I Hear You Knockin'
TTITLE8=Little Richard - Tutti Fruitti
TTITLE9=Fats Domino - Ain't That a Shame
TTITLE10=Shirley and Lee - Let the Good Times Roll
TTITLE11=Clarence "Frogman" Henry - Ain't Got No Home
TTITLE12=Roy Brown - Let the Four Winds Blow
TTITLE13=Dave Bartholomew - The Monkey
TTITLE14=Huey 'Piano' Smith - Don't You Just Know It
TTITLE15=Jessie Hill - Ooh Poo Pah Doo  Pt. 1
TTITLE16=Fats Domino - Walkin' to New Orleans
TTITLE17=Ernie K-Doe - Mother-In-Law
TTITLE18=Prince La La - She Put the Hurt on Me
TTITLE19=Showmen - It Will Stand
TTITLE20=Chris Kenner - I Like It Like That   Pt. 1
TTITLE21=Barbara George - I Know
TTITLE22=Irma Thomas - It's Raining
TTITLE23=Lee Dorsey - Workin' In the Coal Mine
TTITLE24=Aaron Neville - Tell It Like It Is
TTITLE25=Meters - Cissy Strut
TTITLE26=Dr. John - Right Place Wrong Time
TTITLE27=LaBelle - Marmalade
EXTD=
EXTT0=
EXTT1=
EXTT2=
EXTT3=
EXTT4=
EXTT5=
EXTT6=
EXTT7=
EXTT8=
EXTT9=
EXTT10=
EXTT11=
EXTT12=
EXTT13=
EXTT14=
EXTT15=
EXTT16=
EXTT17=
EXTT18=
EXTT19=
EXTT20=
EXTT21=
EXTT22=
EXTT23=
EXTT24=
EXTT25=
EXTT26=
EXTT27=
PLAYORDER=
